<svg xmlns="http://www.w3.org/2000/svg" version="1.0" width="512.000000pt" height="512.000000pt" viewBox="0 0 512.000000 512.000000" preserveAspectRatio="xMidYMid meet">

<g transform="translate(0.000000,512.000000) scale(0.100000,-0.100000)" fill="#dbdbdb" stroke="none">
<path d="M3770 4007 c-189 -53 -288 -265 -206 -442 23 -51 70 -103 337 -371 l310 -311 -1974 -6 c-2252 -8 -2029 2 -2133 -101 -71 -71 -94 -126 -94 -223 0 -126 64 -229 178 -285 l67 -33 1980 4 1980 3 -311 -313 c-343 -347 -355 -363 -362 -481 -6 -105 18 -169 92 -244 43 -43 76 -66 110 -77 69 -24 162 -22 233 4 54 20 87 51 501 463 244 242 464 468 489 501 108 142 153 280 153 465 0 185 -46 323 -153 465 -25 33 -243 257 -484 497 -373 373 -446 441 -494 463 -68 30 -157 40 -219 22z" fill="#dbdbdb"/>
</g>
</svg>