<svg xmlns="http://www.w3.org/2000/svg" version="1.0" width="512.000000pt" height="512.000000pt" viewBox="0 0 512.000000 512.000000" preserveAspectRatio="xMidYMid meet" transform="matrix(1, 0, 0, 1, 0, 0)">

<g transform="translate(0.000000,512.000000) scale(0.100000,-0.100000)" fill="#dedede" stroke="none">
<path d="M1160 3993 c-39 -13 -115 -85 -530 -502 -521 -522 -526 -528 -584 -688 -29 -84 -31 -95 -31 -243 1 -144 3 -161 28 -235 58 -166 70 -180 581 -693 339 -341 485 -481 521 -500 44 -23 62 -27 140 -27 78 0 97 4 141 27 67 35 138 115 160 180 23 69 16 186 -15 248 -16 30 -128 150 -338 361 l-314 316 1975 6 c1916 7 1978 8 2027 26 74 29 133 81 168 153 27 52 31 72 31 138 0 43 -7 96 -16 122 -18 54 -72 120 -125 154 -91 57 20 55 -2109 48 l-1955 -6 312 313 c269 270 316 322 340 374 75 165 -6 361 -177 426 -61 23 -165 24 -230 2z" fill="#dedede"/>
</g>
</svg>