<svg xmlns="http://www.w3.org/2000/svg" version="1.0" width="512.000000pt" height="512.000000pt" viewBox="0 0 512.000000 512.000000" preserveAspectRatio="xMidYMid meet">

<g transform="translate(0.000000,512.000000) scale(0.100000,-0.100000)" fill="#c7c7c7" stroke="none">
<path d="M2495 4706 c-37 -17 -70 -52 -84 -89 -8 -20 -11 -444 -11 -1370 l0 -1342 -562 562 c-312 311 -576 567 -591 573 -132 49 -259 -84 -203 -213 8 -18 314 -332 727 -744 775 -773 732 -735 826 -718 34 6 120 88 752 718 413 412 719 726 727 744 57 132 -77 267 -209 209 -18 -8 -270 -253 -587 -570 l-555 -556 -5 1354 c-5 1349 -5 1355 -26 1382 -11 15 -32 37 -46 47 -34 25 -113 32 -153 13z" fill="#c7c7c7"/>
<path d="M495 2066 c-41 -18 -83 -69 -90 -109 -3 -18 -5 -352 -3 -744 3 -701 3 -712 24 -739 11 -15 33 -37 48 -48 l27 -21 2059 0 2059 0 27 21 c15 11 37 33 48 48 21 27 21 36 21 766 0 730 0 739 -21 766 -39 53 -71 69 -134 69 -63 0 -95 -16 -134 -69 -21 -27 -21 -39 -24 -657 l-2 -629 -1840 0 -1840 0 -2 629 c-3 618 -3 630 -24 657 -11 15 -32 37 -46 47 -33 25 -113 32 -153 13z" fill="#c7c7c7"/>
</g>
</svg>