<svg xmlns="http://www.w3.org/2000/svg" version="1.0" width="512.000000pt" height="512.000000pt" viewBox="0 0 512.000000 512.000000" preserveAspectRatio="xMidYMid meet">

<g transform="translate(0.000000,512.000000) scale(0.100000,-0.100000)" fill="#c9c9c9" stroke="none">
<path d="M3022 5033 c-19 -9 -44 -35 -59 -60 -45 -77 -18 -178 60 -221 29 -16 96 -17 797 -22 720 -5 767 -6 805 -24 74 -34 124 -77 150 -130 l25 -50 0 -1965 c0 -1882 -1 -1968 -19 -2006 -24 -53 -73 -100 -141 -133 l-55 -27 -765 -5 c-701 -5 -768 -6 -797 -22 -75 -42 -105 -142 -63 -216 12 -22 39 -49 61 -61 l38 -22 783 3 783 3 65 24 c226 81 371 225 415 413 22 95 22 4001 0 4096 -49 205 -233 372 -472 426 -63 14 -166 16 -825 16 -674 0 -756 -2 -786 -17z" fill="#c9c9c9"/>
<path d="M1340 4005 c-36 -20 -1313 -1350 -1327 -1382 -7 -16 -12 -44 -12 -63 0 -19 5 -47 12 -63 16 -35 1293 -1364 1331 -1384 15 -8 47 -15 71 -15 128 0 202 139 132 246 -8 11 -238 253 -510 536 l-496 515 1542 5 c1460 5 1544 6 1575 23 97 53 104 196 14 265 l-35 27 -1548 5 -1548 5 496 515 c273 283 504 529 514 545 42 67 16 173 -53 215 -39 23 -120 26 -158 5z" fill="#c9c9c9"/>
</g>
</svg>