<svg xmlns="http://www.w3.org/2000/svg" version="1.0" width="512.000000pt" height="512.000000pt" viewBox="0 0 512.000000 512.000000" preserveAspectRatio="xMidYMid meet">

<g transform="translate(0.000000,512.000000) scale(0.100000,-0.100000)" fill="#c9c9c9" stroke="none">
<path d="M1988 4078 c-309 -387 -562 -712 -562 -723 -1 -20 6 -20 312 -23 l312 -2 0 -883 c0 -673 3 -886 12 -895 9 -9 133 -12 498 -12 365 0 489 3 498 12 9 9 12 222 12 895 l0 883 313 2 c305 3 312 3 311 23 0 22 -1117 1425 -1134 1425 -5 0 -263 -316 -572 -702z" fill="#c9c9c9"/>
<path d="M710 1901 c-74 -23 -127 -69 -159 -141 -20 -44 -21 -63 -21 -635 0 -572 1 -591 21 -635 25 -55 62 -95 114 -123 l40 -22 1855 0 1855 0 40 22 c52 28 89 68 114 123 20 44 21 63 21 635 0 572 -1 591 -21 635 -25 55 -62 95 -114 123 -39 22 -47 22 -540 22 l-500 0 -5 -260 c-6 -293 -9 -305 -88 -377 -72 -65 -51 -63 -762 -63 -711 0 -690 -2 -762 63 -79 72 -82 84 -88 377 l-5 260 -485 2 c-267 1 -496 -2 -510 -6z" fill="#c9c9c9"/>
</g>
</svg>