<svg xmlns="http://www.w3.org/2000/svg" version="1.0" width="512.000000pt" height="512.000000pt" viewBox="0 0 512.000000 512.000000" preserveAspectRatio="xMidYMid meet">

<g transform="translate(0.000000,512.000000) scale(0.100000,-0.100000)" fill="#c7c7c7" stroke="none">
<path d="M4340 4785 c-69 -20 -131 -59 -200 -130 l-55 -55 263 -263 263 -262 70 73 c100 104 124 159 124 282 0 88 -3 101 -33 162 -78 158 -261 240 -432 193z" fill="#c7c7c7"/>
<path d="M3102 3624 l-863 -857 63 -35 c177 -98 351 -243 476 -397 l32 -39 147 144 c81 80 460 455 842 834 l694 688 -259 259 c-142 142 -261 259 -264 259 -3 0 -393 -386 -868 -856z" fill="#c7c7c7"/>
<path d="M731 4269 c-140 -18 -302 -132 -365 -257 -59 -116 -56 -27 -56 -1717 0 -1634 -1 -1583 43 -1686 39 -89 134 -186 229 -235 110 -56 44 -54 1714 -54 984 0 1561 4 1595 10 130 24 271 125 337 241 65 115 62 37 62 1507 0 834 -4 1340 -10 1351 -5 10 -23 24 -39 31 -37 15 -79 -2 -98 -40 -10 -20 -13 -301 -13 -1347 0 -1309 0 -1323 -21 -1377 -26 -72 -93 -145 -166 -181 l-58 -30 -1580 0 -1580 0 -56 26 c-76 36 -133 90 -166 157 l-28 57 0 1575 0 1575 27 52 c53 101 143 165 254 183 36 6 576 10 1360 10 1299 0 1301 0 1319 20 26 29 25 85 -3 113 l-23 22 -1307 1 c-719 1 -1336 -2 -1371 -7z" fill="#c7c7c7"/>
<path d="M2051 2339 c-55 -154 -101 -294 -101 -310 0 -39 32 -69 72 -69 42 0 658 219 658 234 -1 31 -157 189 -287 289 -72 55 -207 137 -227 137 -8 0 -51 -104 -115 -281z" fill="#c7c7c7"/>
</g>
</svg>