<svg xmlns="http://www.w3.org/2000/svg" version="1.0" width="512.000000pt" height="512.000000pt" viewBox="0 0 512.000000 512.000000" preserveAspectRatio="xMidYMid meet">

<g transform="translate(0.000000,512.000000) scale(0.100000,-0.100000)" fill="#c9c9c9" stroke="none">
<path d="M2365 4994 c-308 -54 -597 -221 -794 -460 -315 -380 -390 -849 -226 -1411 39 -136 122 -348 183 -470 l42 -82 -193 -61 c-105 -34 -221 -70 -257 -82 -36 -11 -75 -30 -87 -42 -15 -13 -185 -417 -454 -1076 -237 -580 -434 -1065 -436 -1077 -13 -59 37 -123 95 -123 24 0 220 86 665 291 518 238 634 289 651 281 12 -5 242 -135 511 -287 375 -213 498 -278 525 -279 28 0 138 58 545 287 280 159 517 286 525 284 8 -3 293 -134 633 -291 402 -186 630 -286 651 -286 63 0 115 67 97 126 -17 55 -852 2119 -867 2141 -11 17 -73 42 -279 108 -146 48 -265 88 -265 89 0 2 24 54 54 117 236 499 301 1018 175 1403 -153 467 -568 822 -1051 901 -115 18 -335 18 -443 -1z m401 -209 c241 -39 444 -143 615 -314 80 -80 169 -201 217 -296 38 -77 80 -212 98 -315 71 -426 -121 -1036 -509 -1620 -148 -222 -430 -574 -557 -695 l-42 -40 -31 39 c-18 22 -63 74 -101 115 -205 227 -451 568 -613 851 -274 477 -405 945 -363 1295 30 253 140 483 315 660 160 162 383 280 595 315 41 6 82 13 90 15 44 8 207 3 286 -10z m1057 -2492 c103 -31 194 -61 201 -67 14 -10 711 -1785 704 -1791 -2 -1 -237 105 -523 236 -416 191 -528 239 -562 239 -37 0 -105 -36 -540 -281 -274 -155 -503 -282 -509 -282 -6 0 -161 84 -345 188 -184 104 -413 233 -509 287 -96 54 -184 98 -196 98 -12 0 -262 -110 -555 -245 -293 -135 -534 -244 -535 -242 -2 2 715 1779 720 1784 1 1 111 36 245 76 l243 75 25 -42 c13 -22 42 -72 64 -111 22 -38 58 -95 80 -125 22 -30 54 -76 72 -101 53 -77 263 -342 287 -364 13 -11 48 -53 78 -94 30 -41 102 -123 160 -183 l105 -108 57 0 57 0 119 123 c66 67 133 140 149 162 16 22 68 81 115 130 47 50 99 108 115 130 17 22 58 75 93 119 35 44 70 93 79 110 9 17 27 45 40 61 37 46 92 133 125 200 55 108 52 106 106 89 26 -8 132 -40 235 -71z" fill="#c9c9c9"/>
<path d="M2455 4383 c-225 -53 -404 -192 -499 -385 -54 -109 -76 -200 -76 -318 0 -118 22 -209 74 -316 82 -165 231 -297 405 -357 109 -39 284 -49 394 -23 452 106 687 616 471 1026 -95 181 -270 319 -466 365 -59 14 -256 19 -303 8z m260 -218 c132 -35 252 -128 314 -246 44 -81 61 -148 61 -240 0 -132 -53 -260 -146 -353 -259 -259 -699 -158 -825 190 -31 84 -31 244 0 328 89 245 348 385 596 321z" fill="#c9c9c9"/>
</g>
</svg>